<svg width="16" height="16" viewBox="0 0 16 16" fill="none" xmlns="http://www.w3.org/2000/svg">
<g clip-path="url(#clip0_80_1953)">
<path d="M7.99967 14.6668C11.6816 14.6668 14.6663 11.6821 14.6663 8.00016C14.6663 4.31826 11.6816 1.3335 7.99967 1.3335C4.31778 1.3335 1.33301 4.31826 1.33301 8.00016C1.33301 11.6821 4.31778 14.6668 7.99967 14.6668Z" stroke="#4B4B4B"/>
<path d="M5.94141 10.6229C6.78007 10.8329 7.73141 10.8329 8.68941 10.5762C9.64741 10.3195 10.4714 9.84352 11.0927 9.24219" stroke="#4B4B4B" stroke-linecap="round"/>
<path d="M9.93112 7.48245C10.2868 7.38716 10.4592 6.87744 10.3163 6.34398C10.1733 5.81051 9.76913 5.4553 9.41348 5.5506C9.05784 5.64589 8.88541 6.1556 9.02835 6.68907C9.17129 7.22254 9.57548 7.57774 9.93112 7.48245Z" fill="#4B4B4B"/>
<path d="M6.06784 8.51809C6.42348 8.4228 6.59591 7.91309 6.45297 7.37962C6.31003 6.84616 5.90584 6.49095 5.5502 6.58624C5.19456 6.68154 5.02213 7.19125 5.16507 7.72471C5.30801 8.25818 5.71219 8.61339 6.06784 8.51809Z" fill="#4B4B4B"/>
<path d="M8.66602 10.6669L8.98468 11.3162C9.04233 11.4344 9.12274 11.5401 9.22131 11.6273C9.31988 11.7144 9.43468 11.7812 9.55911 11.8239C9.68355 11.8666 9.81518 11.8843 9.94647 11.876C10.0778 11.8677 10.2061 11.8336 10.3242 11.7756C10.4423 11.7177 10.5478 11.637 10.6346 11.5382C10.7215 11.4394 10.788 11.3244 10.8303 11.1998C10.8727 11.0753 10.89 10.9436 10.8814 10.8123C10.8728 10.6811 10.8383 10.5528 10.78 10.4349L10.4733 9.81152" stroke="#4B4B4B"/>
</g>
<defs>
<clipPath id="clip0_80_1953">
<rect width="16" height="16" fill="white"/>
</clipPath>
</defs>
</svg>
