<svg width="309" height="112" viewBox="0 0 309 112" fill="none" xmlns="http://www.w3.org/2000/svg">
<path d="M7.56 68.0392C6.264 68.0392 5.076 67.7152 3.996 67.0672C2.94 66.3952 2.088 65.5192 1.44 64.4392C0.816 63.3352 0.504 62.1232 0.504 60.8032V59.1472C0.504 59.0272 0.564 58.9672 0.684 58.9672H4.716C4.812 58.9672 4.86 59.0272 4.86 59.1472V60.8032C4.86 61.5952 5.124 62.2792 5.652 62.8552C6.18 63.4072 6.816 63.6832 7.56 63.6832C8.304 63.6832 8.94 63.3952 9.468 62.8192C9.996 62.2432 10.26 61.5712 10.26 60.8032C10.26 59.9152 9.684 59.1472 8.532 58.4992C8.148 58.2832 7.548 57.9472 6.732 57.4912C5.916 57.0352 5.148 56.6032 4.428 56.1952C3.108 55.4272 2.124 54.4672 1.476 53.3152C0.852 52.1392 0.54 50.8192 0.54 49.3552C0.54 48.0112 0.864 46.8112 1.512 45.7552C2.16 44.6752 3.012 43.8232 4.068 43.1992C5.148 42.5752 6.312 42.2632 7.56 42.2632C8.832 42.2632 9.996 42.5872 11.052 43.2352C12.132 43.8592 12.984 44.7112 13.608 45.7912C14.256 46.8472 14.58 48.0352 14.58 49.3552V52.3072C14.58 52.4032 14.532 52.4512 14.436 52.4512H10.404C10.308 52.4512 10.26 52.4032 10.26 52.3072L10.224 49.3552C10.224 48.5152 9.96 47.8312 9.432 47.3032C8.904 46.7752 8.28 46.5112 7.56 46.5112C6.816 46.5112 6.18 46.7992 5.652 47.3752C5.124 47.9272 4.86 48.5872 4.86 49.3552C4.86 50.1472 5.028 50.8072 5.364 51.3352C5.7 51.8632 6.312 52.3672 7.2 52.8472C7.32 52.9192 7.548 53.0512 7.884 53.2432C8.244 53.4112 8.628 53.6152 9.036 53.8552C9.444 54.0712 9.804 54.2632 10.116 54.4312C10.452 54.5992 10.656 54.7072 10.728 54.7552C11.928 55.4272 12.876 56.2552 13.572 57.2392C14.268 58.1992 14.616 59.3872 14.616 60.8032C14.616 62.1712 14.292 63.4072 13.644 64.5112C13.02 65.5912 12.168 66.4552 11.088 67.1032C10.032 67.7272 8.856 68.0392 7.56 68.0392ZM18.0197 67.6792C17.8997 67.6792 17.8397 67.6192 17.8397 67.4992L17.8757 42.7672C17.8757 42.6712 17.9237 42.6232 18.0197 42.6232H22.0517C22.1477 42.6232 22.1957 42.6712 22.1957 42.7672L22.2317 67.4992C22.2317 67.6192 22.1837 67.6792 22.0877 67.6792H18.0197ZM26.2983 67.6792C26.1783 67.6792 26.1183 67.6192 26.1183 67.4992L26.1903 42.7672C26.1903 42.6712 26.2383 42.6232 26.3343 42.6232H33.2463C35.4543 42.6232 37.1943 43.2952 38.4663 44.6392C39.7623 45.9832 40.4103 47.8072 40.4103 50.1112C40.4103 51.8152 40.0743 53.2912 39.4023 54.5392C38.7303 55.7872 37.8543 56.7472 36.7743 57.4192C35.6943 58.0912 34.5183 58.4272 33.2463 58.4272H30.5103V67.4992C30.5103 67.6192 30.4503 67.6792 30.3303 67.6792H26.2983ZM30.5103 54.0712H33.2463C34.0143 54.0712 34.6743 53.7112 35.2263 52.9912C35.8023 52.2472 36.0903 51.2872 36.0903 50.1112C36.0903 49.1752 35.8383 48.4072 35.3343 47.8072C34.8303 47.2072 34.1343 46.9072 33.2463 46.9072L30.5103 46.9432V54.0712ZM43.7167 67.6792C43.6207 67.6792 43.5727 67.6192 43.5727 67.4992L43.6447 42.7672C43.6447 42.6712 43.6927 42.6232 43.7887 42.6232H50.7007C52.0687 42.6232 53.2927 42.9592 54.3727 43.6312C55.4527 44.2792 56.3047 45.1432 56.9287 46.2232C57.5527 47.3032 57.8647 48.4792 57.8647 49.7512C57.8647 50.7832 57.6247 51.7432 57.1447 52.6312C56.6887 53.5192 56.1367 54.2392 55.4887 54.7912C56.1847 55.4872 56.7247 56.2912 57.1087 57.2032C57.4927 58.1152 57.6847 59.0752 57.6847 60.0832C57.6847 61.4752 57.3487 62.7472 56.6767 63.8992C56.0047 65.0512 55.0927 65.9752 53.9407 66.6712C52.8127 67.3432 51.5527 67.6792 50.1607 67.6792H43.7167ZM47.9647 52.5592H50.7007C51.5407 52.5592 52.2127 52.2712 52.7167 51.6952C53.2447 51.0952 53.5087 50.4472 53.5087 49.7512C53.5087 48.9832 53.2327 48.3232 52.6807 47.7712C52.1287 47.1952 51.4687 46.9072 50.7007 46.9072H47.9647V52.5592ZM47.9287 63.2872H50.1607C51.0247 63.2872 51.7687 62.9752 52.3927 62.3512C53.0167 61.7032 53.3287 60.9472 53.3287 60.0832C53.3287 59.2192 53.0167 58.4752 52.3927 57.8512C51.7687 57.2272 51.0247 56.9152 50.1607 56.9152H47.9647L47.9287 63.2872ZM61.1719 67.6792C61.0519 67.6792 60.9919 67.6192 60.9919 67.4992L61.0279 42.7672C61.0279 42.6712 61.0759 42.6232 61.1719 42.6232H65.2039C65.2999 42.6232 65.3479 42.6712 65.3479 42.7672L65.3839 67.4992C65.3839 67.6192 65.3359 67.6792 65.2399 67.6792H61.1719ZM72.8705 67.6792C72.7745 67.6792 72.7265 67.6192 72.7265 67.4992V46.9792H68.0465C67.9265 46.9792 67.8665 46.9192 67.8665 46.7992L67.9025 42.7672C67.9025 42.6712 67.9505 42.6232 68.0465 42.6232H81.7265C81.8465 42.6232 81.9065 42.6712 81.9065 42.7672V46.7992C81.9065 46.9192 81.8585 46.9792 81.7625 46.9792H77.0465L77.0825 67.4992C77.0825 67.6192 77.0345 67.6792 76.9385 67.6792H72.8705ZM84.5485 67.6792C84.4525 67.6792 84.4045 67.6192 84.4045 67.4992L84.4405 42.7672C84.4405 42.6712 84.4885 42.6232 84.5845 42.6232H96.1405C96.2365 42.6232 96.2845 42.6832 96.2845 42.8032V46.8352C96.2845 46.9312 96.2365 46.9792 96.1405 46.9792H88.7605V52.5952H96.1405C96.2365 52.5952 96.2845 52.6432 96.2845 52.7392L96.3205 56.8072C96.3205 56.9032 96.2725 56.9512 96.1765 56.9512H88.7605V63.2512H96.1765C96.2725 63.2512 96.3205 63.3112 96.3205 63.4312V67.5352C96.3205 67.6312 96.2725 67.6792 96.1765 67.6792H84.5485Z" fill="#656BFF"/>
<path d="M191.556 18.202C192.107 18.479 192.708 18.644 193.323 18.6876C193.938 18.7312 194.556 18.6524 195.14 18.4559C195.725 18.2593 196.265 17.9488 196.728 17.5424C197.192 17.1359 197.571 16.6416 197.842 16.088L202.509 6.75462C203.062 5.6469 203.153 4.36477 202.761 3.19029C202.369 2.01581 201.526 1.04519 200.418 0.49195C199.311 -0.0612919 198.029 -0.151834 196.854 0.240242C195.68 0.632318 194.709 1.4749 194.156 2.58262L189.489 11.9159C189.21 12.4641 189.043 13.0619 188.996 13.6751C188.949 14.2882 189.024 14.9046 189.216 15.4887C189.408 16.0729 189.714 16.6133 190.115 17.0789C190.517 17.5445 191.007 17.9262 191.556 18.202Z" fill="#656BFF"/>
<path d="M152.133 16.0879C152.687 17.1988 153.658 18.0443 154.835 18.4386C155.418 18.6338 156.033 18.7123 156.646 18.6697C157.259 18.6271 157.858 18.4642 158.408 18.1903C158.958 17.9163 159.448 17.5368 159.852 17.0732C160.255 16.6096 160.563 16.0711 160.758 15.4885C160.954 14.9059 161.032 14.2905 160.989 13.6775C160.947 13.0646 160.784 12.466 160.51 11.9159L155.843 2.58262C155.569 2.03413 155.19 1.54497 154.727 1.14306C154.264 0.741157 153.727 0.434379 153.145 0.240242C151.971 -0.151834 150.688 -0.0612919 149.581 0.49195C148.473 1.04519 147.63 2.01581 147.238 3.19029C146.846 4.36477 146.937 5.6469 147.49 6.75462L152.133 16.0879Z" fill="#656BFF"/>
<path d="M174.977 18.6686C176.215 18.6686 177.402 18.177 178.277 17.3018C179.152 16.4266 179.644 15.2396 179.644 14.002V4.66862C179.644 3.43094 179.152 2.24396 178.277 1.36879C177.402 0.493618 176.215 0.00195313 174.977 0.00195312C173.74 0.00195313 172.553 0.493618 171.677 1.36879C170.802 2.24396 170.311 3.43094 170.311 4.66862V14.002C170.311 15.2396 170.802 16.4266 171.677 17.3018C172.553 18.177 173.74 18.6686 174.977 18.6686Z" fill="#656BFF"/>
<path fill-rule="evenodd" clip-rule="evenodd" d="M175 54.6066L169.405 71.1873C168 76.0333 165.063 80.2934 161.032 83.329C157.002 86.3647 152.097 88.0122 147.051 88.0246C146.179 88.0114 145.308 87.9491 144.443 87.838L140.079 100.438L145.847 102.235C147.029 102.602 148.017 103.424 148.593 104.52C149.169 105.616 149.286 106.895 148.918 108.077C148.55 109.259 147.728 110.247 146.633 110.823C145.537 111.399 144.257 111.516 143.075 111.148L132.897 107.989C132.838 107.973 132.765 107.964 132.699 107.957H132.699C132.631 107.949 132.569 107.942 132.533 107.928C132.504 107.916 132.479 107.895 132.456 107.875C132.423 107.847 132.392 107.821 132.351 107.821L122.271 104.689C121.686 104.505 121.143 104.208 120.672 103.814C120.202 103.42 119.814 102.938 119.53 102.394C119.246 101.85 119.072 101.256 119.018 100.645C119.006 100.507 119 100.37 119 100.233C119 99.7586 119.072 99.2864 119.215 98.8326C119.399 98.2474 119.696 97.7041 120.09 97.2337C120.484 96.7634 120.966 96.3752 121.51 96.0913C122.054 95.8075 122.648 95.6336 123.259 95.5795C123.87 95.5253 124.486 95.5921 125.071 95.776L131.161 97.6706L135.567 84.94C131.009 82.4103 127.439 78.4148 125.436 73.6018C123.434 68.7887 123.116 63.4403 124.535 58.424L133.247 32.4913C134.345 29.0309 136.741 26.1305 139.932 24.3989C142.005 23.274 144.308 22.6992 146.628 22.6992C147.879 22.6992 149.134 22.8664 150.36 23.2046L168.341 28.2166C170.916 28.9333 173.229 30.3805 175 32.3833V54.6066ZM146.622 32.0246C147.04 32.0254 147.456 32.0819 147.859 32.1926L165.835 37.2046C167.022 37.5322 168.032 38.316 168.644 39.3852C169.256 40.4543 169.42 41.7221 169.101 42.912L168.051 46.0246H138.544L142.137 35.338C142.434 34.3797 143.029 33.5413 143.836 32.9452C144.643 32.3491 145.619 32.0266 146.622 32.0246Z" fill="#FFC700"/>
<path fill-rule="evenodd" clip-rule="evenodd" d="M230.795 98.8313C230.613 98.246 230.317 97.7023 229.925 97.2312C229.533 96.7601 229.052 96.3708 228.509 96.0857C227.967 95.8005 227.373 95.6251 226.763 95.5693C226.153 95.5135 225.537 95.5785 224.952 95.7606L218.885 97.6273L214.541 84.8546C219.104 82.294 222.664 78.2607 224.637 73.4143C226.611 68.568 226.881 63.1954 225.405 58.1753L216.804 32.6253C215.722 29.1372 213.329 26.2048 210.128 24.445C206.928 22.6852 203.17 22.235 199.645 23.1893L181.669 28.2013C179.091 28.9186 176.776 30.3677 175.005 32.3733C175.003 32.3715 175.002 32.3697 175 32.3679V54.5913L175.005 54.5773L180.525 70.9106C181.886 75.8183 184.815 80.146 188.866 83.2332C192.916 86.3205 197.865 87.9979 202.958 88.0093C203.865 88.0007 204.77 87.9383 205.669 87.8226L209.953 100.423L204.148 102.224C202.966 102.592 201.979 103.414 201.403 104.509C200.827 105.605 200.71 106.885 201.077 108.067C201.445 109.249 202.267 110.236 203.363 110.812C204.458 111.388 205.738 111.505 206.92 111.137L217.07 107.987C217.12 107.974 217.171 107.971 217.222 107.969C217.294 107.966 217.367 107.962 217.439 107.927C217.5 107.896 217.531 107.873 217.555 107.855C217.579 107.838 217.598 107.824 217.635 107.81L227.724 104.679C228.31 104.497 228.854 104.201 229.326 103.809C229.797 103.416 230.187 102.935 230.472 102.392C230.757 101.848 230.932 101.255 230.988 100.644C230.993 100.587 230.997 100.53 231 100.473V99.9711C230.979 99.585 230.91 99.202 230.795 98.8313ZM181.337 39.4386C181.634 38.8918 182.039 38.4106 182.526 38.0241C183.014 37.6375 183.575 37.3536 184.175 37.1893L202.146 32.1819C202.547 32.0697 202.962 32.0116 203.378 32.0093C204.404 32.0201 205.4 32.3614 206.217 32.9827C207.034 33.6039 207.629 34.4719 207.914 35.4579L211.465 46.0093H181.958L180.955 43.0366C180.776 42.4416 180.717 41.8169 180.783 41.199C180.849 40.5812 181.037 39.9827 181.337 39.4386Z" fill="#FFC700"/>
<path d="M259.064 68.0392C257.792 68.0392 256.616 67.7152 255.536 67.0672C254.456 66.3952 253.592 65.5072 252.944 64.4032C252.32 63.2992 252.008 62.0872 252.008 60.7672L252.08 42.7672C252.08 42.6712 252.128 42.6232 252.224 42.6232H256.256C256.352 42.6232 256.4 42.6712 256.4 42.7672V60.7672C256.4 61.5832 256.652 62.2792 257.156 62.8552C257.684 63.4072 258.32 63.6832 259.064 63.6832C259.832 63.6832 260.468 63.4072 260.972 62.8552C261.5 62.2792 261.764 61.5832 261.764 60.7672V42.7672C261.764 42.6712 261.812 42.6232 261.908 42.6232H265.94C266.036 42.6232 266.084 42.6712 266.084 42.7672L266.156 60.7672C266.156 62.1112 265.832 63.3352 265.184 64.4392C264.56 65.5432 263.708 66.4192 262.628 67.0672C261.572 67.7152 260.384 68.0392 259.064 68.0392ZM270.043 67.6792C269.851 67.6792 269.755 67.5952 269.755 67.4272L269.719 42.9112C269.719 42.7192 269.815 42.6232 270.007 42.6232H273.247L279.331 56.8072L279.151 42.9112C279.151 42.7192 279.259 42.6232 279.475 42.6232H283.039C283.183 42.6232 283.255 42.7192 283.255 42.9112L283.291 67.4632C283.291 67.6072 283.231 67.6792 283.111 67.6792H279.943L273.715 54.4312L273.967 67.3912C273.967 67.5832 273.859 67.6792 273.643 67.6792H270.043ZM287.318 67.6792C287.198 67.6792 287.138 67.6192 287.138 67.4992L287.174 42.7672C287.174 42.6712 287.222 42.6232 287.318 42.6232H291.35C291.446 42.6232 291.494 42.6712 291.494 42.7672L291.53 67.4992C291.53 67.6192 291.482 67.6792 291.386 67.6792H287.318ZM299.016 67.6792C298.92 67.6792 298.872 67.6192 298.872 67.4992V46.9792H294.192C294.072 46.9792 294.012 46.9192 294.012 46.7992L294.048 42.7672C294.048 42.6712 294.096 42.6232 294.192 42.6232H307.872C307.992 42.6232 308.052 42.6712 308.052 42.7672V46.7992C308.052 46.9192 308.004 46.9792 307.908 46.9792H303.192L303.228 67.4992C303.228 67.6192 303.18 67.6792 303.084 67.6792H299.016Z" fill="#656BFF"/>
</svg>
