<svg width="276" height="112" viewBox="0 0 276 112" fill="none" xmlns="http://www.w3.org/2000/svg">
<path d="M7.56 68.0392C6.264 68.0392 5.076 67.7152 3.996 67.0672C2.94 66.3952 2.088 65.5192 1.44 64.4392C0.816 63.3352 0.504 62.1232 0.504 60.8032V59.1472C0.504 59.0272 0.564 58.9672 0.684 58.9672H4.716C4.812 58.9672 4.86 59.0272 4.86 59.1472V60.8032C4.86 61.5952 5.124 62.2792 5.652 62.8552C6.18 63.4072 6.816 63.6832 7.56 63.6832C8.304 63.6832 8.94 63.3952 9.468 62.8192C9.996 62.2432 10.26 61.5712 10.26 60.8032C10.26 59.9152 9.684 59.1472 8.532 58.4992C8.148 58.2832 7.548 57.9472 6.732 57.4912C5.916 57.0352 5.148 56.6032 4.428 56.1952C3.108 55.4272 2.124 54.4672 1.476 53.3152C0.852 52.1392 0.54 50.8192 0.54 49.3552C0.54 48.0112 0.864 46.8112 1.512 45.7552C2.16 44.6752 3.012 43.8232 4.068 43.1992C5.148 42.5752 6.312 42.2632 7.56 42.2632C8.832 42.2632 9.996 42.5872 11.052 43.2352C12.132 43.8592 12.984 44.7112 13.608 45.7912C14.256 46.8472 14.58 48.0352 14.58 49.3552V52.3072C14.58 52.4032 14.532 52.4512 14.436 52.4512H10.404C10.308 52.4512 10.26 52.4032 10.26 52.3072L10.224 49.3552C10.224 48.5152 9.96 47.8312 9.432 47.3032C8.904 46.7752 8.28 46.5112 7.56 46.5112C6.816 46.5112 6.18 46.7992 5.652 47.3752C5.124 47.9272 4.86 48.5872 4.86 49.3552C4.86 50.1472 5.028 50.8072 5.364 51.3352C5.7 51.8632 6.312 52.3672 7.2 52.8472C7.32 52.9192 7.548 53.0512 7.884 53.2432C8.244 53.4112 8.628 53.6152 9.036 53.8552C9.444 54.0712 9.804 54.2632 10.116 54.4312C10.452 54.5992 10.656 54.7072 10.728 54.7552C11.928 55.4272 12.876 56.2552 13.572 57.2392C14.268 58.1992 14.616 59.3872 14.616 60.8032C14.616 62.1712 14.292 63.4072 13.644 64.5112C13.02 65.5912 12.168 66.4552 11.088 67.1032C10.032 67.7272 8.856 68.0392 7.56 68.0392ZM18.0197 67.6792C17.8997 67.6792 17.8397 67.6192 17.8397 67.4992L17.8757 42.7672C17.8757 42.6712 17.9237 42.6232 18.0197 42.6232H22.0517C22.1477 42.6232 22.1957 42.6712 22.1957 42.7672L22.2317 67.4992C22.2317 67.6192 22.1837 67.6792 22.0877 67.6792H18.0197ZM26.2983 67.6792C26.1783 67.6792 26.1183 67.6192 26.1183 67.4992L26.1903 42.7672C26.1903 42.6712 26.2383 42.6232 26.3343 42.6232H33.2463C35.4543 42.6232 37.1943 43.2952 38.4663 44.6392C39.7623 45.9832 40.4103 47.8072 40.4103 50.1112C40.4103 51.8152 40.0743 53.2912 39.4023 54.5392C38.7303 55.7872 37.8543 56.7472 36.7743 57.4192C35.6943 58.0912 34.5183 58.4272 33.2463 58.4272H30.5103V67.4992C30.5103 67.6192 30.4503 67.6792 30.3303 67.6792H26.2983ZM30.5103 54.0712H33.2463C34.0143 54.0712 34.6743 53.7112 35.2263 52.9912C35.8023 52.2472 36.0903 51.2872 36.0903 50.1112C36.0903 49.1752 35.8383 48.4072 35.3343 47.8072C34.8303 47.2072 34.1343 46.9072 33.2463 46.9072L30.5103 46.9432V54.0712ZM43.7167 67.6792C43.6207 67.6792 43.5727 67.6192 43.5727 67.4992L43.6447 42.7672C43.6447 42.6712 43.6927 42.6232 43.7887 42.6232H50.7007C52.0687 42.6232 53.2927 42.9592 54.3727 43.6312C55.4527 44.2792 56.3047 45.1432 56.9287 46.2232C57.5527 47.3032 57.8647 48.4792 57.8647 49.7512C57.8647 50.7832 57.6247 51.7432 57.1447 52.6312C56.6887 53.5192 56.1367 54.2392 55.4887 54.7912C56.1847 55.4872 56.7247 56.2912 57.1087 57.2032C57.4927 58.1152 57.6847 59.0752 57.6847 60.0832C57.6847 61.4752 57.3487 62.7472 56.6767 63.8992C56.0047 65.0512 55.0927 65.9752 53.9407 66.6712C52.8127 67.3432 51.5527 67.6792 50.1607 67.6792H43.7167ZM47.9647 52.5592H50.7007C51.5407 52.5592 52.2127 52.2712 52.7167 51.6952C53.2447 51.0952 53.5087 50.4472 53.5087 49.7512C53.5087 48.9832 53.2327 48.3232 52.6807 47.7712C52.1287 47.1952 51.4687 46.9072 50.7007 46.9072H47.9647V52.5592ZM47.9287 63.2872H50.1607C51.0247 63.2872 51.7687 62.9752 52.3927 62.3512C53.0167 61.7032 53.3287 60.9472 53.3287 60.0832C53.3287 59.2192 53.0167 58.4752 52.3927 57.8512C51.7687 57.2272 51.0247 56.9152 50.1607 56.9152H47.9647L47.9287 63.2872ZM61.1719 67.6792C61.0519 67.6792 60.9919 67.6192 60.9919 67.4992L61.0279 42.7672C61.0279 42.6712 61.0759 42.6232 61.1719 42.6232H65.2039C65.2999 42.6232 65.3479 42.6712 65.3479 42.7672L65.3839 67.4992C65.3839 67.6192 65.3359 67.6792 65.2399 67.6792H61.1719ZM72.8705 67.6792C72.7745 67.6792 72.7265 67.6192 72.7265 67.4992V46.9792H68.0465C67.9265 46.9792 67.8665 46.9192 67.8665 46.7992L67.9025 42.7672C67.9025 42.6712 67.9505 42.6232 68.0465 42.6232H81.7265C81.8465 42.6232 81.9065 42.6712 81.9065 42.7672V46.7992C81.9065 46.9192 81.8585 46.9792 81.7625 46.9792H77.0465L77.0825 67.4992C77.0825 67.6192 77.0345 67.6792 76.9385 67.6792H72.8705ZM84.5485 67.6792C84.4525 67.6792 84.4045 67.6192 84.4045 67.4992L84.4405 42.7672C84.4405 42.6712 84.4885 42.6232 84.5845 42.6232H96.1405C96.2365 42.6232 96.2845 42.6832 96.2845 42.8032V46.8352C96.2845 46.9312 96.2365 46.9792 96.1405 46.9792H88.7605V52.5952H96.1405C96.2365 52.5952 96.2845 52.6432 96.2845 52.7392L96.3205 56.8072C96.3205 56.9032 96.2725 56.9512 96.1765 56.9512H88.7605V63.2512H96.1765C96.2725 63.2512 96.3205 63.3112 96.3205 63.4312V67.5352C96.3205 67.6312 96.2725 67.6792 96.1765 67.6792H84.5485Z" fill="#656BFF"/>
<path d="M175.056 18.202C175.607 18.479 176.208 18.644 176.823 18.6876C177.438 18.7312 178.056 18.6524 178.64 18.4559C179.225 18.2593 179.765 17.9488 180.228 17.5424C180.692 17.1359 181.071 16.6416 181.342 16.088L186.009 6.75462C186.562 5.6469 186.653 4.36477 186.261 3.19029C185.869 2.01581 185.026 1.04519 183.918 0.49195C182.811 -0.0612919 181.529 -0.151834 180.354 0.240242C179.18 0.632318 178.209 1.4749 177.656 2.58262L172.989 11.9159C172.71 12.4641 172.543 13.0619 172.496 13.6751C172.449 14.2882 172.524 14.9046 172.716 15.4887C172.908 16.0729 173.214 16.6133 173.615 17.0789C174.017 17.5445 174.507 17.9262 175.056 18.202Z" fill="#656BFF"/>
<path d="M135.633 16.0879C136.187 17.1988 137.158 18.0443 138.335 18.4386C138.918 18.6338 139.533 18.7123 140.146 18.6697C140.759 18.6271 141.358 18.4642 141.908 18.1903C142.458 17.9163 142.948 17.5368 143.352 17.0732C143.755 16.6096 144.063 16.0711 144.258 15.4885C144.454 14.9059 144.532 14.2905 144.489 13.6775C144.447 13.0646 144.284 12.466 144.01 11.9159L139.343 2.58262C139.069 2.03413 138.69 1.54497 138.227 1.14306C137.764 0.741157 137.227 0.434379 136.645 0.240242C135.471 -0.151834 134.188 -0.0612919 133.081 0.49195C131.973 1.04519 131.13 2.01581 130.738 3.19029C130.346 4.36477 130.437 5.6469 130.99 6.75462L135.633 16.0879Z" fill="#656BFF"/>
<path d="M158.477 18.6686C159.715 18.6686 160.902 18.177 161.777 17.3018C162.652 16.4266 163.144 15.2396 163.144 14.002V4.66862C163.144 3.43094 162.652 2.24396 161.777 1.36879C160.902 0.493618 159.715 0.00195313 158.477 0.00195312C157.24 0.00195313 156.053 0.493618 155.177 1.36879C154.302 2.24396 153.811 3.43094 153.811 4.66862V14.002C153.811 15.2396 154.302 16.4266 155.177 17.3018C156.053 18.177 157.24 18.6686 158.477 18.6686Z" fill="#656BFF"/>
<path fill-rule="evenodd" clip-rule="evenodd" d="M159 54.6066L153.405 71.1873C152 76.0333 149.063 80.2934 145.032 83.329C141.002 86.3647 136.097 88.0122 131.051 88.0246C130.179 88.0114 129.308 87.9491 128.443 87.838L124.079 100.438L129.847 102.235C131.029 102.602 132.017 103.424 132.593 104.52C133.169 105.616 133.286 106.895 132.918 108.077C132.55 109.259 131.728 110.247 130.633 110.823C129.537 111.399 128.257 111.516 127.075 111.148L116.897 107.989C116.838 107.973 116.765 107.964 116.699 107.957H116.699C116.631 107.949 116.569 107.942 116.533 107.928C116.504 107.916 116.479 107.895 116.456 107.875C116.423 107.847 116.392 107.821 116.351 107.821L106.271 104.689C105.686 104.505 105.143 104.208 104.672 103.814C104.202 103.42 103.814 102.938 103.53 102.394C103.246 101.85 103.072 101.256 103.018 100.645C103.006 100.507 103 100.37 103 100.233C103 99.7586 103.072 99.2864 103.215 98.8326C103.399 98.2474 103.696 97.7041 104.09 97.2337C104.484 96.7634 104.966 96.3752 105.51 96.0913C106.054 95.8075 106.648 95.6336 107.259 95.5795C107.87 95.5253 108.486 95.5921 109.071 95.776L115.161 97.6706L119.567 84.94C115.009 82.4103 111.439 78.4148 109.436 73.6018C107.434 68.7887 107.116 63.4403 108.535 58.424L117.247 32.4913C118.345 29.0309 120.741 26.1305 123.932 24.3989C126.005 23.274 128.308 22.6992 130.628 22.6992C131.879 22.6992 133.134 22.8664 134.36 23.2046L152.341 28.2166C154.916 28.9333 157.229 30.3805 159 32.3833V54.6066ZM130.622 32.0246C131.04 32.0254 131.456 32.0819 131.859 32.1926L149.835 37.2046C151.022 37.5322 152.032 38.316 152.644 39.3852C153.256 40.4543 153.42 41.7221 153.101 42.912L152.051 46.0246H122.544L126.137 35.338C126.434 34.3797 127.029 33.5413 127.836 32.9452C128.643 32.3491 129.619 32.0266 130.622 32.0246Z" fill="#FFC700"/>
<path fill-rule="evenodd" clip-rule="evenodd" d="M213.795 98.8313C213.613 98.246 213.317 97.7023 212.925 97.2312C212.533 96.7601 212.052 96.3708 211.509 96.0857C210.967 95.8005 210.373 95.6251 209.763 95.5693C209.153 95.5135 208.537 95.5785 207.952 95.7606L201.885 97.6273L197.541 84.8546C202.104 82.294 205.664 78.2607 207.637 73.4143C209.611 68.568 209.881 63.1954 208.405 58.1753L199.804 32.6253C198.722 29.1372 196.329 26.2048 193.128 24.445C189.928 22.6852 186.17 22.235 182.645 23.1893L164.669 28.2013C162.091 28.9186 159.776 30.3677 158.005 32.3733C158.003 32.3715 158.002 32.3697 158 32.3679V54.5913L158.005 54.5773L163.525 70.9106C164.886 75.8183 167.815 80.146 171.866 83.2332C175.916 86.3205 180.865 87.9979 185.958 88.0093C186.865 88.0007 187.77 87.9383 188.669 87.8226L192.953 100.423L187.148 102.224C185.966 102.592 184.979 103.414 184.403 104.509C183.827 105.605 183.71 106.885 184.077 108.067C184.445 109.249 185.267 110.236 186.363 110.812C187.458 111.388 188.738 111.505 189.92 111.137L200.07 107.987C200.12 107.974 200.171 107.971 200.222 107.969C200.294 107.966 200.367 107.962 200.439 107.927C200.5 107.896 200.531 107.873 200.555 107.855C200.579 107.838 200.598 107.824 200.635 107.81L210.724 104.679C211.31 104.497 211.854 104.201 212.326 103.809C212.797 103.416 213.187 102.935 213.472 102.392C213.757 101.848 213.932 101.255 213.988 100.644C213.993 100.587 213.997 100.53 214 100.473V99.9711C213.979 99.585 213.91 99.202 213.795 98.8313ZM164.337 39.4386C164.634 38.8918 165.039 38.4106 165.526 38.0241C166.014 37.6375 166.575 37.3536 167.175 37.1893L185.146 32.1819C185.547 32.0697 185.962 32.0116 186.378 32.0093C187.404 32.0201 188.4 32.3614 189.217 32.9827C190.034 33.6039 190.629 34.4719 190.914 35.4579L194.465 46.0093H164.958L163.955 43.0366C163.776 42.4416 163.717 41.8169 163.783 41.199C163.849 40.5812 164.037 39.9827 164.337 39.4386Z" fill="#FFC700"/>
<path d="M226.064 68.0392C224.792 68.0392 223.616 67.7152 222.536 67.0672C221.456 66.3952 220.592 65.5072 219.944 64.4032C219.32 63.2992 219.008 62.0872 219.008 60.7672L219.08 42.7672C219.08 42.6712 219.128 42.6232 219.224 42.6232H223.256C223.352 42.6232 223.4 42.6712 223.4 42.7672V60.7672C223.4 61.5832 223.652 62.2792 224.156 62.8552C224.684 63.4072 225.32 63.6832 226.064 63.6832C226.832 63.6832 227.468 63.4072 227.972 62.8552C228.5 62.2792 228.764 61.5832 228.764 60.7672V42.7672C228.764 42.6712 228.812 42.6232 228.908 42.6232H232.94C233.036 42.6232 233.084 42.6712 233.084 42.7672L233.156 60.7672C233.156 62.1112 232.832 63.3352 232.184 64.4392C231.56 65.5432 230.708 66.4192 229.628 67.0672C228.572 67.7152 227.384 68.0392 226.064 68.0392ZM237.043 67.6792C236.851 67.6792 236.755 67.5952 236.755 67.4272L236.719 42.9112C236.719 42.7192 236.815 42.6232 237.007 42.6232H240.247L246.331 56.8072L246.151 42.9112C246.151 42.7192 246.259 42.6232 246.475 42.6232H250.039C250.183 42.6232 250.255 42.7192 250.255 42.9112L250.291 67.4632C250.291 67.6072 250.231 67.6792 250.111 67.6792H246.943L240.715 54.4312L240.967 67.3912C240.967 67.5832 240.859 67.6792 240.643 67.6792H237.043ZM254.318 67.6792C254.198 67.6792 254.138 67.6192 254.138 67.4992L254.174 42.7672C254.174 42.6712 254.222 42.6232 254.318 42.6232H258.35C258.446 42.6232 258.494 42.6712 258.494 42.7672L258.53 67.4992C258.53 67.6192 258.482 67.6792 258.386 67.6792H254.318ZM266.016 67.6792C265.92 67.6792 265.872 67.6192 265.872 67.4992V46.9792H261.192C261.072 46.9792 261.012 46.9192 261.012 46.7992L261.048 42.7672C261.048 42.6712 261.096 42.6232 261.192 42.6232H274.872C274.992 42.6232 275.052 42.6712 275.052 42.7672V46.7992C275.052 46.9192 275.004 46.9792 274.908 46.9792H270.192L270.228 67.4992C270.228 67.6192 270.18 67.6792 270.084 67.6792H266.016Z" fill="#656BFF"/>
</svg>
